<?xml version="1.0" encoding="utf-8"?>
<!-- Generator: Adobe Illustrator 24.0.1, SVG Export Plug-In . SVG Version: 6.00 Build 0)  -->
<svg version="1.1"
	 id="svg823" xmlns:cc="http://creativecommons.org/ns#" xmlns:dc="http://purl.org/dc/elements/1.1/" xmlns:rdf="http://www.w3.org/1999/02/22-rdf-syntax-ns#" xmlns:svg="http://www.w3.org/2000/svg"
	 xmlns="http://www.w3.org/2000/svg" xmlns:xlink="http://www.w3.org/1999/xlink" x="0px" y="0px" viewBox="0 0 100 80"
	 style="enable-background:new 0 0 100 80;" xml:space="preserve">
<style type="text/css">
	.st0{opacity:0.5;fill:none;stroke:#000000;stroke-width:5.5;stroke-miterlimit:10;enable-background:new    ;}
</style>
<path class="st0" d="M12.1,21.8v11.4c0,0.5-0.4,0.9-0.9,0.9H6.7c-0.5,0-0.9,0.4-0.9,0.9v14.4c0,0.5,0.4,0.9,0.9,0.9h4.4
	c0.5,0,0.9,0.4,0.9,0.9v11.4c0,0.5,0.4,0.9,0.9,0.9h74.6c0.5,0,0.9-0.4,0.9-0.9V21.8c0-0.5-0.4-0.9-0.9-0.9H13
	C12.5,20.8,12.1,21.2,12.1,21.8z"/>
<!--<g id="g1976" transform="matrix(5.3551721,0,0,-5.3551721,-1057.9348,1162.7097)">
	<g>
		<defs>
			<rect id="SVGID_1_" x="149.2" y="163" width="114.2" height="92.4"/>
		</defs>
		<clipPath id="SVGID_2_">
			<use xlink:href="#SVGID_1_"  style="overflow:visible;"/>
		</clipPath>
	</g>
</g>-->
</svg>
